<svg width="64" height="64" viewBox="0 0 64 64" fill="none" xmlns="http://www.w3.org/2000/svg">
<g clip-path="url(#clip0_4_594)">
<rect width="64" height="64" rx="16" fill="#C9D6DF"/>
<path fill-rule="evenodd" clip-rule="evenodd" d="M15.428 10.5386C17.0296 8.43338 22.8582 4.17922 33.3596 4.0042C43.8609 3.82917 50.9246 9.17239 53.1437 11.8659C53.3656 12.7653 53.2248 14.573 50.886 14.608L41.9853 10.1156C39.8433 9.16266 35.0037 9.50591 32.7807 18.5023C30.5577 27.4988 33.7745 30.3119 35.6607 30.5939C37.3974 31.046 40.4338 32.3733 38.6855 34.0653C36.5002 36.1802 32.5202 41.0955 36.0804 47.8487C36.7751 49.5893 40.5843 52.7845 50.2636 51.641C50.8811 52.1904 51.4012 53.7355 48.5414 55.5208C48.4589 55.5043 48.3756 55.4876 48.2915 55.4708L48.1904 55.4506C49.0122 55.7733 49.6359 56.0572 50.0176 56.2792L50.2058 57.6648C50.2492 58.0635 50.035 58.9601 48.8309 59.3568C48.4739 59.4744 48.2089 59.5674 47.9963 59.642L47.9955 59.6423C47.3125 59.8821 47.1707 59.9318 46.2547 59.9986C45.0535 60.0861 20.146 56.1771 16.6726 55.302C13.8938 54.6019 13.4404 53.0072 13.561 52.2973C13.561 51.7625 13.9228 50.3137 15.3701 49.4969C15.785 49.5546 16.22 49.6088 16.6726 49.6604V47.4403C14.7815 46.2346 10.762 43.1346 9.81257 40.3808C8.14821 39.846 5.47656 36.749 8.10479 28.6394C8.13125 28.3316 8.17227 27.9785 8.22946 27.5856C9.08423 26.0924 10.8616 23.6649 12.3163 23.4031C14.3425 23.0385 17.6567 24.2199 17.9462 25.2847C18.5734 24.2248 18.0099 22.1108 11.8387 22.1342C11.2276 22.4564 9.73298 23.4226 8.80935 24.6694C9.76882 20.7575 11.7688 15.3269 15.428 10.5386ZM15.2977 25.591L18.0909 26.4661L16.9476 30.2146C15.5929 29.7012 14.9166 30.2438 14.7477 30.5793C14.2605 31.2259 13.2136 32.9597 12.9242 34.7216C12.6347 36.4835 14.3859 37.031 15.2977 37.0845L14.2991 41.3727C9.62152 41.8511 8.50037 38.8688 8.52449 37.3178C9.69389 28.6481 13.5272 25.8876 15.2977 25.591Z" fill="#3A357A"/>
<path fill-rule="evenodd" clip-rule="evenodd" d="M54.1134 33.4381L53.9328 30.681C54.8598 30.0257 55.5415 28.634 55.6246 26.9909C55.743 24.6494 54.6009 22.684 53.0738 22.601C51.5466 22.5181 50.2126 24.349 50.0942 26.6905C49.9758 29.032 51.1178 30.9975 52.645 31.0804C52.6519 31.0808 52.6589 31.0811 52.6658 31.0814C53.0626 31.68 53.896 32.9672 54.1134 33.4381ZM52.6777 30.3381C53.9437 30.4069 55.0496 28.8891 55.1477 26.948C55.2459 25.0069 54.2992 23.3776 53.0332 23.3088C52.041 23.255 51.1472 24.1755 50.7597 25.5105C50.8377 25.489 50.9308 25.4813 51.0288 25.4762C51.811 25.4349 52.4957 26.373 52.558 27.5716C52.6132 28.6326 52.1623 29.5419 51.5155 29.7655C51.8457 30.1068 52.2428 30.3145 52.6777 30.3381Z" fill="#3A357A"/>
<path d="M55.112 37.6825C54.9267 37.5658 53.7323 37.5172 53.1582 37.5075C51.2767 37.5658 50.7268 39.3598 50.6834 39.6661C50.6486 39.9112 50.6689 40.3322 50.6834 40.5121C50.6978 41.6935 51.7543 42.1895 52.7385 42.2478C53.7226 42.3061 54.4462 42.204 55.3436 41.9998C56.0614 41.8365 56.5207 41.1344 56.6606 40.8038C56.7522 40.5316 56.9211 39.7682 56.8632 38.8931C56.7185 38.0856 55.8978 37.8904 55.421 37.777C55.2777 37.7429 55.1655 37.7162 55.112 37.6825Z" fill="#3A357A"/>
<path fill-rule="evenodd" clip-rule="evenodd" d="M43.5542 32.6352C45.6117 32.8166 47.4714 30.7549 47.7079 28.0302C47.9444 25.3056 46.4683 22.9498 44.4108 22.7684C42.3533 22.5869 40.4937 24.6486 40.2571 27.3733C40.0206 30.098 41.4968 32.4538 43.5542 32.6352ZM43.5913 31.9467C45.3654 32.1032 46.9691 30.3253 47.173 27.9758C47.377 25.6263 46.1041 23.5948 44.3299 23.4384C42.7866 23.3023 41.3723 24.6299 40.8962 26.5241C41.1266 26.2762 41.4074 26.1306 41.7103 26.1306C42.4936 26.1306 43.1286 27.1036 43.1286 28.3039C43.1286 29.5042 42.4936 30.4772 41.7103 30.4772C41.5955 30.4772 41.4838 30.4563 41.3769 30.4168C41.8914 31.2843 42.6744 31.8659 43.5913 31.9467Z" fill="#3A357A"/>
<path d="M39.5539 41.8248C38.9783 42.7362 38.7871 43.3937 38.8447 43.9106C38.8559 44.0109 38.9443 44.0016 39.0329 43.9543C39.56 43.673 40.4086 43.5216 41.703 43.5752C42.3812 43.6033 42.9676 43.677 43.5558 43.7509C44.8408 43.9123 46.1351 44.0749 48.417 43.7663C50.9153 43.4284 52.781 43.6714 53.5634 43.896C53.6557 43.9225 53.7395 44.0672 53.7081 44.1585C53.6768 44.2499 53.5111 44.4033 53.4187 44.3773C52.6837 44.1703 51.0146 43.93 48.5703 44.2606C46.2441 44.5752 44.9822 44.4235 43.6786 44.2606C43.6072 44.2518 43.4864 44.2347 43.3371 44.2136C42.8489 44.1445 42.0572 44.0325 41.703 44.0273C40.3208 43.97 39.3807 44.2361 38.9709 44.4898C38.9279 44.5164 38.9692 44.5866 39.004 44.6457C39.0154 44.665 39.026 44.6831 39.0329 44.6982C39.0463 44.7279 39.0613 44.7595 39.0779 44.7927C39.1355 44.9077 39.0982 45.1263 38.9894 45.1941C38.9351 45.228 38.7564 45.096 38.7249 45.0399C38.6076 44.8311 38.5358 44.6456 38.508 44.5554C38.2899 44.0566 38.2117 42.7915 39.1145 41.4409C39.1502 41.3874 39.328 41.3063 39.3802 41.3435C39.4846 41.4179 39.6225 41.7161 39.5539 41.8248Z" fill="#3A357A"/>
</g>
<defs>
<clipPath id="clip0_4_594">
<rect width="64" height="64" fill="white"/>
</clipPath>
</defs>
</svg>
