<svg width="64" height="64" viewBox="0 0 64 64" fill="none" xmlns="http://www.w3.org/2000/svg">
<g clip-path="url(#clip0_1_14)">
<path d="M3.78062 31.7806C1.57148 31.7806 -0.24561 33.5804 0.027201 35.7727C1.99207 51.5618 15.4594 63.7806 31.7806 63.7806C49.4537 63.7806 63.7806 49.4537 63.7806 31.7806C63.7806 15.4594 51.5618 1.99206 35.7727 0.027201C33.5804 -0.24561 31.7806 1.57148 31.7806 3.78062C31.7806 5.98975 33.5849 7.74568 35.7639 8.10965C47.123 10.0071 55.7806 19.8828 55.7806 31.7806C55.7806 45.0355 45.0355 55.7806 31.7806 55.7806C19.8828 55.7806 10.0071 47.123 8.10964 35.7639C7.74568 33.5849 5.98975 31.7806 3.78062 31.7806Z" fill="#9692CF"/>
</g>
<defs>
<clipPath id="clip0_1_14">
<rect width="64" height="64" fill="white"/>
</clipPath>
</defs>
</svg>
