<svg width="512" height="512" viewBox="0 0 512 512" fill="none" xmlns="http://www.w3.org/2000/svg">
<path fill-rule="evenodd" clip-rule="evenodd" d="M105.056 59.7813C119.699 40.5337 172.989 1.63863 269.002 0.038371C365.014 -1.56188 429.596 47.2904 449.885 71.9165C451.914 80.1401 450.626 96.6672 429.243 96.9872L347.865 55.914C328.282 47.2015 284.034 50.3397 263.709 132.593C243.384 214.846 272.795 240.566 290.041 243.144C305.92 247.278 333.681 259.413 317.696 274.882C297.716 294.219 261.327 339.159 293.878 400.902C300.23 416.816 335.057 446.03 423.553 435.575C429.199 440.598 433.954 454.724 407.807 471.047C407.053 470.896 406.292 470.744 405.522 470.59L404.598 470.406C412.111 473.356 417.814 475.952 421.304 477.981L423.024 490.65C423.421 494.295 421.463 502.492 410.453 506.119C407.19 507.195 404.767 508.045 402.823 508.727L402.816 508.73C396.571 510.922 395.275 511.377 386.9 511.987C375.918 512.787 148.192 477.048 116.435 469.047C91.0295 462.646 86.8835 448.065 87.9861 441.576C87.9861 436.686 91.2941 423.439 104.526 415.971C108.32 416.499 112.297 416.995 116.435 417.467V397.169C99.1453 386.145 62.3952 357.802 53.7149 332.625C38.4979 327.735 14.0714 299.42 38.101 225.274C38.3429 222.46 38.7179 219.232 39.2407 215.639C47.0559 201.988 63.3056 179.794 76.6065 177.4C95.1315 174.066 125.433 184.868 128.08 194.603C133.814 184.912 128.662 165.585 72.2399 165.798C66.6523 168.744 52.9873 177.578 44.5426 188.978C53.3149 153.211 71.6001 103.561 105.056 59.7813ZM103.865 197.403L129.403 205.405L118.949 239.677C106.564 234.983 100.38 239.943 98.8365 243.011C94.3816 248.923 84.8104 264.774 82.164 280.883C79.5176 296.992 95.5285 301.998 103.865 302.487L94.7345 341.693C51.9682 346.067 41.7177 318.8 41.9382 304.62C52.6298 225.354 87.6774 200.115 103.865 197.403Z" fill="#C9D6DF"/>
<path fill-rule="evenodd" clip-rule="evenodd" d="M458.751 269.148L457.1 243.941C465.575 237.949 471.808 225.225 472.567 210.203C473.65 188.795 463.209 170.825 449.246 170.067C435.283 169.308 423.087 186.048 422.004 207.456C420.922 228.864 431.363 246.834 445.326 247.592C445.389 247.596 445.452 247.599 445.516 247.601C449.143 253.074 456.764 264.843 458.751 269.148ZM445.625 240.806C457.2 241.435 467.311 227.557 468.208 209.81C469.105 192.063 460.45 177.167 448.875 176.538C439.804 176.045 431.632 184.462 428.089 196.668C428.802 196.471 429.653 196.401 430.549 196.354C437.701 195.976 443.96 204.553 444.53 215.512C445.035 225.212 440.912 233.526 434.999 235.57C438.017 238.69 441.649 240.59 445.625 240.806Z" fill="#C9D6DF"/>
<path d="M467.881 307.954C466.187 306.887 455.266 306.443 450.018 306.354C432.816 306.887 427.788 323.29 427.391 326.09C427.073 328.331 427.258 332.18 427.391 333.825C427.523 344.627 437.182 349.161 446.18 349.694C455.178 350.228 461.794 349.294 469.998 347.427C476.561 345.934 480.76 339.515 482.039 336.492C482.877 334.003 484.421 327.024 483.892 319.023C482.569 311.64 475.066 309.855 470.706 308.818C469.396 308.506 468.37 308.262 467.881 307.954Z" fill="#C9D6DF"/>
<path fill-rule="evenodd" clip-rule="evenodd" d="M362.21 261.807C381.021 263.466 398.024 244.616 400.186 219.705C402.349 194.794 388.853 173.255 370.041 171.596C351.23 169.938 334.228 188.788 332.065 213.699C329.903 238.61 343.399 260.149 362.21 261.807ZM362.549 255.513C378.77 256.943 393.431 240.689 395.296 219.207C397.161 197.726 385.523 179.153 369.302 177.723C355.192 176.478 342.261 188.616 337.908 205.935C340.014 203.668 342.582 202.337 345.351 202.337C352.513 202.337 358.319 211.233 358.319 222.207C358.319 233.181 352.513 242.077 345.351 242.077C344.301 242.077 343.281 241.886 342.303 241.525C347.007 249.456 354.166 254.774 362.549 255.513Z" fill="#C9D6DF"/>
<path d="M325.635 345.827C320.373 354.16 318.625 360.171 319.152 364.897C319.254 365.814 320.062 365.729 320.872 365.297C325.692 362.725 333.45 361.341 345.284 361.831C351.486 362.088 356.846 362.761 362.225 363.437C373.973 364.912 385.807 366.399 406.67 363.577C429.512 360.488 446.569 362.71 453.723 364.763C454.566 365.005 455.333 366.328 455.046 367.164C454.759 367.999 453.244 369.402 452.399 369.164C445.68 367.271 430.419 365.075 408.072 368.097C386.804 370.974 375.266 369.587 363.347 368.097C362.695 368.017 361.59 367.86 360.225 367.667C355.761 367.035 348.523 366.011 345.284 365.963C332.648 365.44 324.052 367.873 320.305 370.193C319.913 370.436 320.29 371.077 320.608 371.618C320.712 371.794 320.81 371.96 320.872 372.098C320.995 372.369 321.132 372.659 321.284 372.961C321.811 374.013 321.469 376.012 320.475 376.632C319.978 376.942 318.344 375.735 318.056 375.222C316.984 373.313 316.328 371.617 316.074 370.792C314.079 366.232 313.364 354.665 321.618 342.317C321.945 341.828 323.57 341.086 324.048 341.426C325.002 342.106 326.263 344.833 325.635 345.827Z" fill="#C9D6DF"/>
</svg>
