<svg width="380" height="64" viewBox="0 0 380 64" fill="none" xmlns="http://www.w3.org/2000/svg">
<g clip-path="url(#clip0_3_591)">
<path fill-rule="evenodd" clip-rule="evenodd" d="M9.63195 7.47266C11.4624 5.06672 18.1237 0.204828 30.1252 0.00479637C42.1268 -0.195236 50.1995 5.9113 52.7357 8.98956C52.9893 10.0175 52.8283 12.0834 50.1554 12.1234L39.9832 6.98925C37.5352 5.90018 32.0042 6.29247 29.4636 16.5741C26.9231 26.8558 30.5994 30.0707 32.7551 30.393C34.7399 30.9097 38.2101 32.4266 36.212 34.3603C33.7145 36.7773 29.1659 42.3949 33.2348 50.1128C34.0287 52.102 38.3821 55.7537 49.4442 54.4468C50.1499 55.0747 50.7442 56.8405 47.4759 58.8809C47.3816 58.862 47.2864 58.843 47.1903 58.8238L47.0747 58.8007C48.0139 59.1695 48.7268 59.494 49.163 59.7477L49.378 61.3313C49.4276 61.7869 49.1828 62.8115 47.8067 63.2649C47.3987 63.3993 47.0959 63.5056 46.8529 63.5909L46.852 63.5912C46.0714 63.8652 45.9093 63.9221 44.8625 63.9983C43.4897 64.0984 15.024 59.631 11.0544 58.6308C7.87868 57.8307 7.36043 56.0082 7.49826 55.1969C7.49826 54.5857 7.91177 52.9299 9.56578 51.9964C10.04 52.0624 10.5371 52.1243 11.0544 52.1833V49.6461C8.89316 48.2681 4.2994 44.7253 3.21436 41.5781C1.31224 40.9669 -1.74108 37.4274 1.26262 28.1593C1.29286 27.8076 1.33974 27.404 1.40509 26.9549C2.38198 25.2485 4.4132 22.4742 6.07581 22.175C8.39144 21.7583 12.1791 23.1085 12.5099 24.3253C13.2267 23.114 12.5827 20.6981 5.52999 20.7248C4.83154 21.093 3.12341 22.1973 2.06782 23.6222C3.16436 19.1514 5.45001 12.9451 9.63195 7.47266ZM9.48308 24.6754L12.6753 25.6756L11.3687 29.9596C9.82051 29.3728 9.04753 29.9929 8.85456 30.3763C8.29771 31.1153 7.1013 33.0967 6.7705 35.1104C6.4397 37.1241 8.44106 37.7497 9.48308 37.8108L8.34181 42.7116C2.99603 43.2584 1.71471 39.85 1.74228 38.0775C3.07873 28.1693 7.45967 25.0143 9.48308 24.6754Z" fill="#3A357A"/>
<path fill-rule="evenodd" clip-rule="evenodd" d="M53.8439 33.6435L53.6375 30.4926C54.6969 29.7436 55.476 28.1532 55.5709 26.2753C55.7063 23.5993 54.4011 21.3531 52.6557 21.2583C50.9104 21.1635 49.3858 23.256 49.2505 25.932C49.1152 28.608 50.4204 30.8542 52.1657 30.949C52.1736 30.9495 52.1816 30.9498 52.1895 30.9502C52.6429 31.6343 53.5955 33.1053 53.8439 33.6435ZM52.2031 30.1007C53.65 30.1793 54.9138 28.4447 55.026 26.2263C55.1382 24.0079 54.0562 22.1458 52.6093 22.0672C51.4754 22.0057 50.454 23.0577 50.0111 24.5834C50.1003 24.5589 50.2067 24.5501 50.3186 24.5442C51.2126 24.497 51.9951 25.5692 52.0663 26.939C52.1293 28.1515 51.614 29.1908 50.8749 29.4463C51.2522 29.8363 51.7061 30.0737 52.2031 30.1007Z" fill="#3A357A"/>
<path d="M54.9851 38.4943C54.7734 38.3609 53.4083 38.3054 52.7522 38.2942C50.602 38.3609 49.9735 40.4112 49.9238 40.7613C49.8841 41.0413 49.9073 41.5225 49.9238 41.7281C49.9404 43.0783 51.1478 43.6451 52.2725 43.7118C53.3973 43.7785 54.2243 43.6618 55.2498 43.4284C56.0702 43.2417 56.595 42.4394 56.7549 42.0615C56.8597 41.7503 57.0527 40.878 56.9865 39.8778C56.8212 38.9549 55.8832 38.7319 55.3383 38.6022C55.1745 38.5633 55.0463 38.5328 54.9851 38.4943Z" fill="#3A357A"/>
<path fill-rule="evenodd" clip-rule="evenodd" d="M41.7763 32.7259C44.1277 32.9333 46.253 30.577 46.5233 27.4631C46.7936 24.3492 45.1066 21.6569 42.7552 21.4495C40.4038 21.2422 38.2785 23.5985 38.0082 26.7123C37.7378 29.8262 39.4249 32.5186 41.7763 32.7259ZM41.8186 31.9391C43.8462 32.1179 45.6789 30.0861 45.912 27.4009C46.1451 24.7158 44.6904 22.3941 42.6627 22.2153C40.8989 22.0598 39.2827 23.577 38.7385 25.7419C39.0018 25.4585 39.3227 25.2922 39.6689 25.2922C40.5641 25.2922 41.2899 26.4042 41.2899 27.7759C41.2899 29.1476 40.5641 30.2596 39.6689 30.2596C39.5377 30.2596 39.4101 30.2357 39.2879 30.1906C39.8759 31.182 40.7707 31.8467 41.8186 31.9391Z" fill="#3A357A"/>
<path d="M37.2044 43.2284C36.5467 44.27 36.3281 45.0214 36.394 45.6121C36.4068 45.7268 36.5078 45.7161 36.609 45.6621C37.2115 45.3406 38.1813 45.1676 39.6605 45.2289C40.4357 45.261 41.1058 45.3451 41.7781 45.4296C43.2467 45.6141 44.7259 45.7999 47.3337 45.4472C50.189 45.061 52.3212 45.3388 53.2153 45.5954C53.3208 45.6257 53.4166 45.7911 53.3807 45.8955C53.3449 45.9999 53.1555 46.1752 53.0499 46.1455C52.21 45.9089 50.3024 45.6343 47.509 46.0121C44.8504 46.3717 43.4082 46.1983 41.9184 46.0121C41.8368 46.0021 41.6987 45.9825 41.5282 45.9584C40.9702 45.8794 40.0653 45.7514 39.6605 45.7454C38.081 45.68 37.0065 45.9841 36.5381 46.2741C36.4891 46.3044 36.5363 46.3846 36.576 46.4522C36.589 46.4743 36.6012 46.495 36.609 46.5122C36.6244 46.5461 36.6415 46.5823 36.6605 46.6202C36.7263 46.7517 36.6836 47.0014 36.5594 47.079C36.4972 47.1177 36.293 46.9669 36.257 46.9028C36.123 46.6641 36.0409 46.4521 36.0092 46.349C35.7599 45.779 35.6705 44.3331 36.7023 42.7896C36.7431 42.7285 36.9463 42.6358 37.006 42.6783C37.1253 42.7633 37.2829 43.1041 37.2044 43.2284Z" fill="#3A357A"/>
<path d="M81.8575 45.165C81.8575 45.165 81.8356 44.6991 81.7918 43.7673C81.7699 42.8354 81.7262 41.6373 81.6605 40.173C81.6168 38.7087 81.5621 37.1445 81.4964 35.4805C81.4308 33.7832 81.3651 32.1691 81.2995 30.6382C81.2557 29.074 81.2229 27.7761 81.201 26.7444C81.1792 25.6795 81.1682 25.0471 81.1682 24.8475C81.212 24.2817 81.2448 23.8324 81.2667 23.4996C81.3104 23.1335 81.4198 22.8839 81.5949 22.7508C81.7262 22.651 81.759 22.5178 81.6934 22.3514C81.6496 22.185 81.6387 21.9687 81.6605 21.7025C81.7043 21.4362 81.9231 21.1533 82.317 20.8538C82.6233 20.6209 83.1047 20.2881 83.7611 19.8554C84.4395 19.3895 85.2491 19.0234 86.19 18.7572C87.1309 18.4909 88.1374 18.5242 89.2096 18.857C90.2818 19.1565 91.3649 19.9386 92.459 21.2033C93.2029 22.0685 93.6515 22.9671 93.8047 23.899C93.9797 24.7975 93.9797 25.6795 93.8047 26.5447C93.6296 27.3768 93.378 28.1422 93.0497 28.8411C92.7215 29.5067 92.4152 30.0392 92.1307 30.4385C91.8682 30.8379 91.7369 31.0376 91.7369 31.0376C91.7369 31.0376 91.89 31.1208 92.1964 31.2872C92.5027 31.4536 92.8747 31.7198 93.3123 32.0859C93.7718 32.452 94.2313 32.9512 94.6908 33.5835C95.1504 34.1826 95.5333 34.9314 95.8396 35.8299C96.1678 36.7285 96.3429 37.7768 96.3648 38.9749C96.4085 41.005 95.9928 42.669 95.1175 43.967C94.2642 45.2649 93.0716 46.2467 91.5399 46.9123C90.0301 47.5446 88.2906 47.8608 86.3213 47.8608C85.1834 47.8608 84.3082 47.7276 83.6955 47.4614C83.0828 47.1951 82.6452 46.879 82.3826 46.5129C82.12 46.1468 81.9669 45.8307 81.9231 45.5644C81.8794 45.2982 81.8575 45.165 81.8575 45.165ZM86.2228 23.6494C86.2228 23.6494 86.2228 23.9156 86.2228 24.4481C86.2447 24.9473 86.2556 25.5463 86.2556 26.2452C86.2775 26.9441 86.2994 27.5931 86.3213 28.1921C86.365 28.7579 86.4088 29.1073 86.4525 29.2404C86.4963 29.3736 86.6495 29.3403 86.912 29.1406C87.1746 28.9409 87.4481 28.6414 87.7326 28.242C88.0389 27.8094 88.2796 27.3268 88.4547 26.7943C88.6516 26.2286 88.7173 25.6795 88.6516 25.147C88.4984 24.082 88.1812 23.4663 87.6998 23.2999C87.2184 23.1335 86.7261 23.25 86.2228 23.6494ZM86.9449 35.2309L87.1746 43.5177C87.1746 43.5177 87.3278 43.5177 87.6341 43.5177C87.9405 43.5177 88.3125 43.4678 88.7501 43.3679C89.1877 43.2681 89.6144 43.0518 90.0301 42.7189C90.4678 42.3861 90.8069 41.9036 91.0476 41.2713C91.3102 40.6057 91.3977 39.7071 91.3102 38.5756C91.2227 37.444 91.0148 36.612 90.6866 36.0795C90.3802 35.5138 90.0083 35.1477 89.5706 34.9813C89.1549 34.8149 88.7391 34.765 88.3234 34.8315C87.9295 34.8648 87.6013 34.948 87.3387 35.0811C87.0762 35.181 86.9449 35.2309 86.9449 35.2309Z" fill="#3A357A"/>
<path d="M101.939 24.1486C101.655 24.2151 101.25 24.265 100.725 24.2983C100.2 24.2983 99.6635 24.2484 99.1164 24.1486C98.5694 24.0487 98.0989 23.8657 97.7051 23.5994C97.3112 23.2999 97.0924 22.8673 97.0486 22.3015C97.0268 21.7357 97.1362 21.2865 97.3769 20.9537C97.6394 20.6209 97.9458 20.3713 98.2959 20.2049C98.646 20.0052 98.9523 19.8887 99.2149 19.8554C99.4993 19.7889 99.6416 19.7556 99.6416 19.7556L108.832 18.4576C108.832 18.4576 108.985 18.4576 109.291 18.4576C109.598 18.4244 109.948 18.441 110.342 18.5076C110.757 18.5741 111.129 18.7405 111.457 19.0068C111.786 19.2397 111.961 19.6225 111.983 20.1549C112.026 20.6874 111.917 21.1367 111.654 21.5028C111.414 21.8356 111.118 22.1185 110.768 22.3514C110.418 22.5511 110.112 22.7009 109.849 22.8007C109.587 22.8673 109.455 22.9006 109.455 22.9006L107.355 23.3998C107.442 24.2318 107.541 25.4132 107.65 26.9441C107.76 28.4417 107.869 30.1057 107.978 31.9361C108.088 33.7666 108.186 35.5637 108.274 37.3275C108.361 39.0914 108.427 40.6722 108.471 42.07C108.536 43.4678 108.569 44.4662 108.569 45.0652C108.569 45.8307 108.427 46.4131 108.142 46.8124C107.88 47.1785 107.563 47.4447 107.191 47.6111C106.841 47.7443 106.523 47.8275 106.239 47.8608C105.976 47.8608 105.845 47.8608 105.845 47.8608C105.845 47.8608 105.703 47.8608 105.418 47.8608C105.134 47.8275 104.806 47.6943 104.434 47.4614C104.083 47.2284 103.766 46.7958 103.482 46.1635C103.219 45.5311 103.088 44.5826 103.088 43.318C103.088 42.1865 103.044 40.8053 102.957 39.1746C102.891 37.5439 102.803 35.8632 102.694 34.1326C102.585 32.3688 102.464 30.7381 102.333 29.2404C102.224 27.7428 102.125 26.5281 102.038 25.5963C101.972 24.6311 101.939 24.1486 101.939 24.1486Z" fill="#3A357A"/>
<path d="M126.922 41.421C126.922 41.421 126.889 41.6373 126.824 42.07C126.758 42.5026 126.616 43.0351 126.397 43.6674C126.178 44.2998 125.839 44.9487 125.379 45.6143C124.942 46.2467 124.34 46.7791 123.574 47.2118C122.808 47.6444 121.846 47.8608 120.686 47.8608C119.285 47.8608 118.137 47.5279 117.24 46.8623C116.364 46.1967 115.675 45.2982 115.172 44.1666C114.668 43.0018 114.307 41.7205 114.089 40.3228C113.87 38.8917 113.738 37.4107 113.695 35.8799C113.673 34.349 113.684 32.868 113.728 31.4369C113.771 29.9726 113.804 28.658 113.826 27.4932C113.848 25.7294 114.056 24.315 114.45 23.25C114.865 22.1517 115.369 21.3197 115.959 20.754C116.572 20.1549 117.207 19.7389 117.863 19.506C118.52 19.273 119.11 19.1399 119.636 19.1066C120.708 19.0068 121.791 19.2896 122.885 19.9553C123.979 20.6209 124.865 21.8522 125.543 23.6494C125.894 24.5479 125.992 25.2635 125.839 25.7959C125.708 26.2951 125.456 26.6612 125.084 26.8942C124.734 27.1271 124.373 27.2769 124.001 27.3435C123.629 27.41 123.388 27.4433 123.279 27.4433C122.579 27.4433 122.042 27.2936 121.67 26.994C121.32 26.6945 121.069 26.3451 120.916 25.9457C120.784 25.5131 120.719 25.1303 120.719 24.7975C120.719 24.5313 120.664 24.265 120.555 23.9988C120.467 23.6993 120.347 23.4996 120.193 23.3998C120.062 23.2999 119.92 23.4164 119.767 23.7492C119.636 24.082 119.526 24.731 119.439 25.6961C119.373 26.4615 119.329 27.4766 119.307 28.7412C119.307 29.9726 119.318 31.2872 119.34 32.685C119.362 34.0494 119.384 35.3474 119.406 36.5787C119.45 37.8101 119.482 38.8252 119.504 39.6239C119.548 40.3893 119.57 40.7721 119.57 40.7721C119.57 40.7721 119.592 41.0217 119.636 41.5209C119.701 42.0201 119.821 42.5193 119.997 43.0185C120.193 43.5177 120.478 43.7839 120.85 43.8172C121.134 43.8505 121.353 43.7174 121.506 43.4178C121.681 43.085 121.802 42.719 121.867 42.3196C121.955 41.8869 122.01 41.5209 122.032 41.2213C122.053 40.8885 122.064 40.7221 122.064 40.7221C122.064 40.7221 122.053 40.589 122.032 40.3228C122.032 40.0565 122.086 39.757 122.196 39.4242C122.305 39.0581 122.535 38.7586 122.885 38.5256C123.235 38.2594 123.771 38.1429 124.493 38.1762C125.215 38.2095 125.751 38.3925 126.101 38.7253C126.452 39.0248 126.681 39.3909 126.791 39.8236C126.9 40.2229 126.944 40.589 126.922 40.9218C126.922 41.2546 126.922 41.421 126.922 41.421Z" fill="#3A357A"/>
<path d="M137.69 45.3148C137.624 44.1833 137.581 42.7689 137.559 41.0716C137.537 39.341 137.526 37.494 137.526 35.5304C137.526 33.5669 137.537 31.6699 137.559 29.8395C137.603 27.9758 137.646 26.3284 137.69 24.8974C137.734 23.4663 137.778 22.4346 137.821 21.8023C137.887 21.0036 138.073 20.4045 138.379 20.0052C138.686 19.5725 139.025 19.273 139.397 19.1066C139.791 18.9402 140.119 18.857 140.382 18.857C140.666 18.8237 140.808 18.8071 140.808 18.8071C140.808 18.8071 140.939 18.8404 141.202 18.9069C141.487 18.9402 141.793 19.0234 142.121 19.1565C142.449 19.2896 142.679 19.5226 142.81 19.8554C143.095 20.521 143.226 21.17 143.204 21.8023C143.204 22.4014 143.182 23.1834 143.139 24.1486C143.007 26.6446 142.931 29.0907 142.909 31.4869C142.887 33.883 142.887 36.0629 142.909 38.0264C142.931 39.99 142.953 41.5541 142.974 42.7189C143.018 43.8838 143.04 44.4662 143.04 44.4662C143.04 44.4662 143.029 44.6492 143.007 45.0153C143.007 45.3481 142.942 45.7308 142.81 46.1635C142.679 46.5961 142.427 46.9955 142.055 47.3615C141.683 47.6943 141.136 47.8608 140.414 47.8608C139.692 47.8608 139.134 47.7443 138.74 47.5113C138.368 47.2451 138.106 46.9455 137.953 46.6127C137.821 46.2467 137.745 45.9471 137.723 45.7142C137.701 45.4479 137.69 45.3148 137.69 45.3148Z" fill="#3A357A"/>
<path d="M149.421 47.8608C149.421 47.8608 149.279 47.8608 148.994 47.8608C148.71 47.8608 148.382 47.7942 148.01 47.6611C147.66 47.5279 147.342 47.2617 147.058 46.8623C146.774 46.463 146.609 45.8806 146.566 45.1151C146.544 44.4828 146.5 43.5842 146.434 42.4194C146.369 41.2546 146.292 39.99 146.205 38.6255C146.139 37.2277 146.073 35.9131 146.008 34.6818C145.942 33.4171 145.887 32.3854 145.844 31.5867C145.8 30.788 145.778 30.3886 145.778 30.3886C145.778 30.3886 145.789 30.2555 145.811 29.9893C145.833 29.6897 145.909 29.3569 146.04 28.9908C146.194 28.6248 146.445 28.292 146.795 27.9924C147.167 27.6929 147.682 27.5265 148.338 27.4932C148.994 27.46 149.509 27.5598 149.881 27.7928C150.253 28.0257 150.515 28.3086 150.668 28.6414C150.843 28.9409 150.942 29.2238 150.964 29.49C151.008 29.723 151.029 29.8395 151.029 29.8395C151.029 29.8395 151.226 29.6897 151.62 29.3902C152.036 29.0574 152.561 28.7246 153.196 28.3918C153.852 28.059 154.541 27.8593 155.263 27.7928C155.373 27.7928 155.581 27.7928 155.887 27.7928C156.215 27.7928 156.565 27.9092 156.937 28.1422C157.331 28.3419 157.714 28.7412 158.086 29.3403C158.48 29.9393 158.808 30.8213 159.071 31.9861C159.333 33.1176 159.487 34.6152 159.53 36.4789C159.596 38.8085 159.64 40.7221 159.662 42.2197C159.705 43.7174 159.673 44.8822 159.563 45.7142C159.476 46.5129 159.257 47.0787 158.907 47.4115C158.578 47.711 158.053 47.8608 157.331 47.8608C156.631 47.8608 156.117 47.711 155.789 47.4115C155.46 47.1119 155.253 46.7625 155.165 46.3631C155.077 45.9305 155.034 45.5478 155.034 45.215C155.034 45.0153 155.056 44.4828 155.099 43.6175C155.143 42.719 155.176 41.7039 155.198 40.5724C155.22 39.4076 155.209 38.276 155.165 37.1778C155.143 36.0463 155.056 35.1311 154.902 34.4322C154.771 33.7 154.552 33.3506 154.246 33.3838C153.874 33.4171 153.524 33.6334 153.196 34.0328C152.889 34.3989 152.616 34.8315 152.375 35.3307C152.134 35.7967 151.948 36.2127 151.817 36.5787C151.686 36.9115 151.62 37.0779 151.62 37.0779L151.948 44.6159C151.948 44.6159 151.948 44.7823 151.948 45.1151C151.948 45.4479 151.883 45.8307 151.751 46.2633C151.62 46.6627 151.369 47.0287 150.997 47.3615C150.646 47.6943 150.121 47.8608 149.421 47.8608Z" fill="#3A357A"/>
<path d="M168.349 39.8735C166.708 39.8069 165.428 39.5573 164.509 39.1247C163.59 38.692 162.933 38.1762 162.539 37.5771C162.167 36.9781 161.938 36.3957 161.85 35.8299C161.763 35.2309 161.719 34.765 161.719 34.4322C161.719 34.0994 161.752 33.5835 161.817 32.8846C161.883 32.1857 162.091 31.4536 162.441 30.6881C162.791 29.9227 163.393 29.2571 164.246 28.6913C165.121 28.1256 166.358 27.8094 167.955 27.7428C169.706 27.6763 171.051 27.826 171.992 28.1921C172.933 28.5582 173.6 28.9908 173.994 29.49C174.41 29.9893 174.662 30.4385 174.749 30.8379C174.837 31.204 174.88 31.387 174.88 31.387C174.88 31.8197 174.848 32.2689 174.782 32.7349C174.716 33.1675 174.519 33.5336 174.191 33.8331C173.885 34.0994 173.349 34.2158 172.583 34.1826C171.97 34.1493 171.511 34.0661 171.204 33.933C170.898 33.7998 170.668 33.6501 170.515 33.4837C170.384 33.284 170.242 33.0843 170.088 32.8846C169.957 32.685 169.749 32.5186 169.465 32.3854C169.202 32.2523 168.776 32.1691 168.185 32.1358C167.463 32.1025 166.916 32.1857 166.544 32.3854C166.194 32.5518 165.953 32.7682 165.822 33.0344C165.712 33.3006 165.647 33.5336 165.625 33.7333C165.625 33.8997 165.625 33.9829 165.625 33.9829C165.625 33.9829 165.647 34.116 165.69 34.3822C165.756 34.6485 165.975 34.9147 166.347 35.181C166.741 35.4472 167.441 35.597 168.447 35.6303C170.351 35.7301 171.806 36.013 172.813 36.4789C173.841 36.9115 174.563 37.4274 174.979 38.0264C175.417 38.6255 175.668 39.2245 175.734 39.8236C175.821 40.3893 175.865 40.8386 175.865 41.1714C175.865 41.5042 175.789 42.0201 175.635 42.7189C175.504 43.4178 175.209 44.15 174.749 44.9154C174.29 45.6809 173.579 46.3465 172.616 46.9123C171.675 47.478 170.406 47.7942 168.808 47.8608C167.08 47.9273 165.734 47.7775 164.771 47.4115C163.83 47.0454 163.152 46.6127 162.736 46.1135C162.342 45.6143 162.102 45.1817 162.014 44.8156C161.927 44.4162 161.883 44.2166 161.883 44.2166C161.883 43.7506 161.916 43.3014 161.981 42.8687C162.069 42.4361 162.266 42.0866 162.572 41.8204C162.9 41.5209 163.437 41.3877 164.18 41.421C164.815 41.4543 165.275 41.5375 165.559 41.6706C165.865 41.8037 166.095 41.9701 166.248 42.1698C166.401 42.3362 166.544 42.5193 166.675 42.7189C166.806 42.9186 167.014 43.085 167.299 43.2182C167.583 43.3513 168.01 43.4345 168.579 43.4678C169.301 43.501 169.837 43.4345 170.187 43.2681C170.559 43.0684 170.811 42.8354 170.942 42.5692C171.073 42.3029 171.139 42.0866 171.139 41.9202C171.139 41.7205 171.139 41.6207 171.139 41.6207C171.139 41.6207 171.117 41.4876 171.073 41.2213C171.029 40.9218 170.811 40.6389 170.417 40.3727C170.045 40.0732 169.355 39.9068 168.349 39.8735Z" fill="#3A357A"/>
<path d="M188.344 36.4789C187.491 36.4789 186.867 36.3291 186.473 36.0296C186.102 35.6968 185.861 35.364 185.751 35.0312C185.664 34.6984 185.62 34.4821 185.62 34.3822C185.62 34.2824 185.576 34.0827 185.489 33.7832C185.423 33.4837 185.303 33.2008 185.128 32.9346C184.953 32.635 184.723 32.4853 184.439 32.4853C184.154 32.452 183.881 32.7515 183.618 33.3838C183.355 34.0162 183.137 34.7816 182.962 35.6802C182.787 36.5455 182.677 37.3775 182.633 38.1762C182.611 38.9749 182.666 39.7903 182.797 40.6223C182.951 41.4543 183.169 42.1532 183.454 42.7189C183.738 43.2514 184.077 43.5343 184.471 43.5676C185.062 43.6009 185.423 43.4678 185.554 43.1682C185.686 42.8354 185.751 42.669 185.751 42.669C185.751 42.669 185.773 42.5692 185.817 42.3695C185.861 42.1365 185.981 41.8869 186.178 41.6207C186.397 41.3545 186.736 41.1381 187.196 40.9717C187.655 40.7721 188.312 40.6889 189.165 40.7221C190.018 40.7554 190.598 40.9218 190.904 41.2213C191.211 41.5209 191.364 41.8537 191.364 42.2197C191.386 42.5858 191.342 42.902 191.233 43.1682C191.123 43.4345 191.069 43.5676 191.069 43.5676C191.069 43.5676 190.915 43.7839 190.609 44.2166C190.303 44.6492 189.854 45.1484 189.263 45.7142C188.694 46.2799 187.994 46.7791 187.163 47.2118C186.331 47.6444 185.379 47.8608 184.307 47.8608C182.185 47.8608 180.5 46.9788 179.253 45.215C178.027 43.4511 177.371 40.9551 177.283 37.7269C177.24 36.1295 177.426 34.6984 177.841 33.4338C178.257 32.1691 178.815 31.1041 179.515 30.2389C180.215 29.3403 180.992 28.658 181.846 28.1921C182.699 27.6929 183.53 27.41 184.34 27.3435C185.172 27.2769 185.959 27.46 186.703 27.8926C187.447 28.292 188.115 28.8411 188.705 29.54C189.318 30.2389 189.81 30.971 190.182 31.7365C190.554 32.5019 190.762 33.2174 190.806 33.883C190.85 34.5154 190.751 35.0146 190.511 35.3807C190.292 35.7467 190.007 36.013 189.657 36.1794C189.329 36.3125 189.034 36.3957 188.771 36.429C188.508 36.4623 188.366 36.4789 188.344 36.4789Z" fill="#3A357A"/>
<path d="M194.208 44.4662C194.208 44.1001 194.175 43.4678 194.11 42.5692C194.044 41.6706 193.957 40.6556 193.847 39.524C193.76 38.3592 193.661 37.2111 193.552 36.0795C193.442 34.9147 193.322 33.883 193.191 32.9845C193.081 32.0526 192.983 31.387 192.895 30.9877C192.676 29.9893 192.797 29.2904 193.256 28.891C193.738 28.4584 194.405 28.1755 195.258 28.0424C196.112 27.9092 196.725 28.0091 197.097 28.3419C197.49 28.6414 197.687 28.7912 197.687 28.7912C198.016 28.292 198.552 27.9425 199.296 27.7428C200.061 27.5432 200.86 27.46 201.692 27.4932C202.764 27.5265 203.541 27.7761 204.022 28.242C204.503 28.708 204.744 29.2072 204.744 29.7396C204.744 30.139 204.711 30.4385 204.646 30.6382C204.58 30.8379 204.317 31.0376 203.858 31.2373C203.42 31.4037 202.622 31.7032 201.462 32.1358C200.784 32.3688 200.28 32.9346 199.952 33.8331C199.624 34.6984 199.416 35.7135 199.328 36.8783C199.263 38.0098 199.263 39.1413 199.328 40.2729C199.394 41.3711 199.471 42.3029 199.558 43.0684C199.646 43.8006 199.689 44.1999 199.689 44.2665C199.689 44.333 199.7 44.566 199.722 44.9654C199.766 45.3315 199.733 45.7475 199.624 46.2134C199.536 46.646 199.307 47.0287 198.935 47.3615C198.563 47.6943 197.972 47.8608 197.162 47.8608C196.353 47.8608 195.74 47.6943 195.324 47.3615C194.908 46.9955 194.624 46.5961 194.471 46.1635C194.318 45.7308 194.23 45.3481 194.208 45.0153C194.208 44.6492 194.208 44.4662 194.208 44.4662Z" fill="#3A357A"/>
<path d="M209.149 26.8443C209.149 26.8443 209.007 26.8443 208.722 26.8443C208.438 26.811 208.099 26.7111 207.705 26.5447C207.333 26.3451 206.994 25.9956 206.687 25.4964C206.381 24.9972 206.217 24.2484 206.195 23.25C206.173 22.2516 206.271 21.5194 206.49 21.0535C206.709 20.5543 206.983 20.2215 207.311 20.0551C207.639 19.8554 207.956 19.7556 208.263 19.7556C208.569 19.7223 208.788 19.689 208.919 19.6557C209.05 19.6224 209.269 19.6557 209.576 19.7556C209.882 19.8221 210.199 20.0052 210.527 20.3047C210.856 20.5709 211.129 20.9869 211.348 21.5527C211.567 22.0852 211.654 22.8007 211.61 23.6993C211.567 24.5646 211.414 25.2302 211.151 25.6961C210.91 26.1287 210.626 26.4283 210.298 26.5947C209.991 26.7278 209.718 26.811 209.477 26.8443C209.258 26.8443 209.149 26.8443 209.149 26.8443ZM208 44.7657L207.212 33.3838C207.212 33.3838 207.158 33.2174 207.048 32.8846C206.961 32.5186 206.895 32.2689 206.851 32.1358C206.829 32.036 206.786 31.8363 206.72 31.5368C206.676 31.204 206.731 30.8545 206.884 30.4885C207.059 30.1224 207.431 29.8561 208 29.6897C208.591 29.5233 209.204 29.4734 209.838 29.54C210.473 29.6065 211.031 29.9061 211.512 30.4385C212.015 30.9377 212.322 31.8197 212.431 33.0843C212.519 34.0162 212.606 35.1311 212.694 36.429C212.781 37.6936 212.858 38.9416 212.923 40.173C213.011 41.3711 213.077 42.3861 213.12 43.2182C213.186 44.0169 213.219 44.4162 213.219 44.4162C213.219 44.4162 213.23 44.5993 213.252 44.9654C213.273 45.2982 213.241 45.6975 213.153 46.1635C213.066 46.5961 212.847 46.9955 212.497 47.3615C212.168 47.6943 211.632 47.8608 210.888 47.8608C210.144 47.8608 209.576 47.711 209.182 47.4115C208.788 47.0787 208.503 46.7126 208.328 46.3132C208.175 45.9139 208.077 45.5644 208.033 45.2649C208.011 44.9321 208 44.7657 208 44.7657Z" fill="#3A357A"/>
<path d="M216.389 54.9994L215.305 34.7317C215.305 34.7317 215.251 34.5986 215.141 34.3323C215.054 34.0661 214.966 33.7333 214.879 33.3339C214.791 32.9013 214.769 32.4853 214.813 32.0859C214.857 31.6865 215.021 31.3537 215.305 31.0875C215.546 30.8878 215.984 30.5051 216.618 29.9393C217.275 29.3403 218.073 28.7579 219.014 28.1921C219.955 27.6264 220.962 27.227 222.034 26.994C223.128 26.7611 224.222 26.8609 225.316 27.2935C226.432 27.6929 227.482 28.6081 228.467 30.0392C229.43 31.4369 230.032 32.9845 230.272 34.6818C230.513 36.3791 230.491 38.0431 230.207 39.6738C229.944 41.3045 229.496 42.7356 228.861 43.967C228.248 45.1983 227.548 46.0636 226.76 46.5628C225.688 47.2284 224.769 47.6444 224.003 47.8108C223.237 47.944 222.647 47.9772 222.231 47.9107C221.815 47.8774 221.607 47.8608 221.607 47.8608L221.936 55.3987C221.936 55.3987 221.936 55.5651 221.936 55.8979C221.936 56.2307 221.87 56.6135 221.739 57.0461C221.629 57.4787 221.389 57.8448 221.017 58.1444C220.645 58.4772 220.098 58.6436 219.375 58.6436C218.413 58.6103 217.712 58.3773 217.275 57.9447C216.859 57.512 216.607 57.0128 216.52 56.4471C216.432 55.8813 216.389 55.3987 216.389 54.9994ZM220.59 32.4853L221.312 43.318C221.312 43.318 221.498 43.318 221.87 43.318C222.242 43.318 222.658 43.2182 223.117 43.0185C223.599 42.8188 224.014 42.4361 224.364 41.8703C224.714 41.3045 224.868 40.4559 224.824 39.3244C224.78 37.8268 224.671 36.4955 224.496 35.3307C224.321 34.1326 224.058 33.2174 223.708 32.5851C223.358 31.9528 222.876 31.7198 222.264 31.8862C221.651 32.0526 221.224 32.1857 220.984 32.2856C220.765 32.3521 220.645 32.4021 220.623 32.4354C220.601 32.4686 220.59 32.4853 220.59 32.4853Z" fill="#3A357A"/>
<path d="M231.839 20.6042C231.817 19.7722 231.981 19.1066 232.331 18.6074C232.681 18.0749 233.458 17.7588 234.661 17.6589C235.471 17.5924 236.062 17.7421 236.434 18.1082C236.806 18.4743 237.035 18.857 237.123 19.2564C237.232 19.6224 237.287 19.8055 237.287 19.8055L237.484 24.2484C237.484 24.2484 237.659 24.2484 238.009 24.2484C238.381 24.2484 238.797 24.315 239.256 24.4481C239.738 24.5479 240.153 24.7643 240.504 25.0971C240.875 25.4299 241.061 25.9457 241.061 26.6446C241.061 27.3435 240.886 27.8593 240.536 28.1921C240.186 28.5249 239.781 28.7579 239.322 28.891C238.862 28.9908 238.447 29.0408 238.075 29.0408C237.725 29.0408 237.55 29.0408 237.55 29.0408C237.55 29.0408 237.55 29.4235 237.55 30.1889C237.571 30.9211 237.582 31.8862 237.582 33.0843C237.582 34.2491 237.593 35.4971 237.615 36.8283C237.637 38.1596 237.648 39.4408 237.648 40.6722C237.648 41.8703 237.648 42.8854 237.648 43.7174C237.67 44.5161 237.681 44.982 237.681 45.1151C237.681 45.3481 237.626 45.6809 237.517 46.1135C237.429 46.5462 237.178 46.9455 236.762 47.3116C236.368 47.6777 235.712 47.8608 234.792 47.8608C234.114 47.8608 233.589 47.7443 233.217 47.5113C232.845 47.2451 232.572 46.9622 232.396 46.6627C232.243 46.3299 232.156 46.047 232.134 45.814C232.112 45.5478 232.101 45.4147 232.101 45.4147L231.839 20.6042Z" fill="#3A357A"/>
<path d="M245.432 26.8443C245.432 26.8443 245.29 26.8443 245.006 26.8443C244.721 26.811 244.382 26.7111 243.988 26.5447C243.616 26.3451 243.277 25.9956 242.971 25.4964C242.664 24.9972 242.5 24.2484 242.478 23.25C242.457 22.2516 242.555 21.5194 242.774 21.0535C242.993 20.5543 243.266 20.2215 243.594 20.0551C243.923 19.8554 244.24 19.7556 244.546 19.7556C244.853 19.7223 245.071 19.689 245.203 19.6557C245.334 19.6224 245.553 19.6557 245.859 19.7556C246.165 19.8221 246.483 20.0052 246.811 20.3047C247.139 20.5709 247.413 20.9869 247.632 21.5527C247.85 22.0852 247.938 22.8007 247.894 23.6993C247.85 24.5646 247.697 25.2302 247.435 25.6961C247.194 26.1287 246.909 26.4283 246.581 26.5947C246.275 26.7278 246.001 26.811 245.761 26.8443C245.542 26.8443 245.432 26.8443 245.432 26.8443ZM244.284 44.7657L243.496 33.3838C243.496 33.3838 243.441 33.2174 243.332 32.8846C243.244 32.5186 243.179 32.2689 243.135 32.1358C243.113 32.036 243.069 31.8363 243.004 31.5368C242.96 31.204 243.015 30.8545 243.168 30.4885C243.343 30.1224 243.715 29.8561 244.284 29.6897C244.874 29.5233 245.487 29.4734 246.122 29.54C246.756 29.6065 247.314 29.9061 247.796 30.4385C248.299 30.9377 248.605 31.8197 248.715 33.0843C248.802 34.0162 248.89 35.1311 248.977 36.429C249.065 37.6936 249.141 38.9416 249.207 40.173C249.294 41.3711 249.36 42.3861 249.404 43.2182C249.47 44.0169 249.502 44.4162 249.502 44.4162C249.502 44.4162 249.513 44.5993 249.535 44.9654C249.557 45.2982 249.524 45.6975 249.437 46.1635C249.349 46.5961 249.13 46.9955 248.78 47.3615C248.452 47.6943 247.916 47.8608 247.172 47.8608C246.428 47.8608 245.859 47.711 245.465 47.4115C245.071 47.0787 244.787 46.7126 244.612 46.3132C244.459 45.9139 244.36 45.5644 244.316 45.2649C244.295 44.9321 244.284 44.7657 244.284 44.7657Z" fill="#3A357A"/>
<path d="M258.219 27.5931C259.029 27.4932 259.652 27.6264 260.09 27.9924C260.528 28.3585 260.79 28.5748 260.878 28.6414C261.097 28.8078 261.293 28.9908 261.469 29.1905C261.665 29.3902 261.764 29.49 261.764 29.49C261.764 29.49 261.928 29.5732 262.256 29.7396C262.584 29.9061 262.967 30.3054 263.405 30.9377C263.843 31.5368 264.247 32.4853 264.619 33.7832C264.991 35.0811 265.21 36.845 265.276 39.0748C265.32 40.5724 265.166 41.837 264.816 42.8687C264.466 43.8671 263.996 44.6991 263.405 45.3647C262.836 45.9971 262.212 46.4963 261.534 46.8623C260.878 47.1951 260.243 47.4281 259.63 47.5612C259.04 47.6943 258.547 47.7775 258.153 47.8108C257.782 47.8441 257.596 47.8608 257.596 47.8608C257.596 47.8608 257.377 47.8608 256.939 47.8608C256.523 47.8608 255.998 47.7609 255.364 47.5612C254.729 47.3283 254.095 46.8956 253.46 46.2633C252.847 45.5977 252.333 44.6326 251.917 43.3679C251.523 42.1033 251.348 40.4226 251.392 38.326C251.436 36.2293 251.688 34.5154 252.147 33.1842C252.628 31.8197 253.197 30.7547 253.854 29.9893C254.532 29.2238 255.2 28.6747 255.856 28.3419C256.534 28.0091 257.092 27.8094 257.53 27.7428C257.989 27.643 258.219 27.5931 258.219 27.5931ZM258.35 32.4853C258.35 32.4853 258.208 32.7515 257.924 33.284C257.661 33.8165 257.388 34.5653 257.103 35.5304C256.841 36.4955 256.709 37.6271 256.709 38.925C256.709 40.1897 256.808 41.1881 257.005 41.9202C257.202 42.6524 257.41 43.1849 257.628 43.5177C257.869 43.8172 258.055 43.967 258.186 43.967C258.318 43.967 258.525 43.8838 258.81 43.7174C259.116 43.5177 259.39 43.085 259.63 42.4194C259.871 41.7538 259.981 40.7055 259.959 39.2744C259.937 38.0764 259.849 37.1112 259.696 36.3791C259.565 35.6469 259.379 34.9979 259.138 34.4322C258.919 33.8331 258.657 33.1842 258.35 32.4853Z" fill="#3A357A"/>
<path d="M270.228 47.8608C270.228 47.8608 270.085 47.8608 269.801 47.8608C269.516 47.8608 269.188 47.7942 268.816 47.6611C268.466 47.5279 268.149 47.2617 267.864 46.8623C267.58 46.463 267.416 45.8806 267.372 45.1151C267.35 44.4828 267.306 43.5842 267.241 42.4194C267.175 41.2546 267.099 39.99 267.011 38.6255C266.945 37.2277 266.88 35.9131 266.814 34.6818C266.748 33.4171 266.694 32.3854 266.65 31.5867C266.606 30.788 266.584 30.3886 266.584 30.3886C266.584 30.3886 266.595 30.2555 266.617 29.9893C266.639 29.6897 266.716 29.3569 266.847 28.9908C267 28.6248 267.252 28.292 267.602 27.9924C267.974 27.6929 268.488 27.5265 269.144 27.4932C269.801 27.46 270.315 27.5598 270.687 27.7928C271.059 28.0257 271.322 28.3086 271.475 28.6414C271.65 28.9409 271.748 29.2238 271.77 29.49C271.814 29.723 271.836 29.8395 271.836 29.8395C271.836 29.8395 272.033 29.6897 272.427 29.3902C272.842 29.0574 273.368 28.7246 274.002 28.3918C274.659 28.059 275.348 27.8593 276.07 27.7928C276.179 27.7928 276.387 27.7928 276.694 27.7928C277.022 27.7928 277.372 27.9092 277.744 28.1422C278.138 28.3419 278.521 28.7412 278.893 29.3403C279.286 29.9393 279.615 30.8213 279.877 31.9861C280.14 33.1176 280.293 34.6152 280.337 36.4789C280.402 38.8085 280.446 40.7221 280.468 42.2197C280.512 43.7174 280.479 44.8822 280.37 45.7142C280.282 46.5129 280.063 47.0787 279.713 47.4115C279.385 47.711 278.86 47.8608 278.138 47.8608C277.437 47.8608 276.923 47.711 276.595 47.4115C276.267 47.1119 276.059 46.7625 275.971 46.3631C275.884 45.9305 275.84 45.5478 275.84 45.215C275.84 45.0153 275.862 44.4828 275.906 43.6175C275.95 42.719 275.982 41.7039 276.004 40.5724C276.026 39.4076 276.015 38.276 275.971 37.1778C275.95 36.0463 275.862 35.1311 275.709 34.4322C275.578 33.7 275.359 33.3506 275.052 33.3838C274.68 33.4171 274.33 33.6334 274.002 34.0328C273.696 34.3989 273.422 34.8315 273.182 35.3307C272.941 35.7967 272.755 36.2127 272.624 36.5787C272.492 36.9115 272.427 37.0779 272.427 37.0779L272.755 44.6159C272.755 44.6159 272.755 44.7823 272.755 45.1151C272.755 45.4479 272.689 45.8307 272.558 46.2633C272.427 46.6627 272.175 47.0287 271.803 47.3615C271.453 47.6943 270.928 47.8608 270.228 47.8608Z" fill="#3A357A"/>
<path d="M290.526 22.4014C290.526 22.4014 290.526 22.2349 290.526 21.9021C290.526 21.5693 290.581 21.17 290.69 20.7041C290.8 20.2381 291.029 19.8221 291.38 19.456C291.73 19.0567 292.255 18.8237 292.955 18.7572C293.655 18.6906 294.202 18.7738 294.596 19.0068C295.012 19.2397 295.307 19.5392 295.482 19.9053C295.679 20.2381 295.8 20.5543 295.843 20.8538C295.909 21.1201 295.942 21.2532 295.942 21.2532L297.419 38.1263L298.6 24.7476C298.6 24.7476 298.622 24.5812 298.666 24.2484C298.71 23.8823 298.819 23.4996 298.994 23.1002C299.191 22.6676 299.476 22.3182 299.848 22.0519C300.22 21.7524 300.734 21.6858 301.39 21.8522C302.047 21.9853 302.517 22.2682 302.802 22.7009C303.086 23.1002 303.261 23.5329 303.327 23.9988C303.392 24.4314 303.403 24.8142 303.36 25.147C303.316 25.4798 303.294 25.6462 303.294 25.6462C303.294 25.6462 303.228 26.1121 303.097 27.0439C302.966 27.9425 302.791 29.1073 302.572 30.5384C302.375 31.9694 302.156 33.5003 301.915 35.1311C301.675 36.7285 301.445 38.2594 301.226 39.7237C301.007 41.1548 300.832 42.3362 300.701 43.2681C300.57 44.1999 300.493 44.6825 300.471 44.7158C300.449 44.749 300.395 44.9321 300.307 45.2649C300.241 45.5644 300.11 45.9305 299.913 46.3631C299.716 46.7625 299.41 47.1119 298.994 47.4115C298.6 47.711 298.075 47.8608 297.419 47.8608C296.544 47.8608 295.887 47.6444 295.449 47.2118C295.012 46.7459 294.727 46.2966 294.596 45.8639C294.465 45.4313 294.399 45.215 294.399 45.215L290.526 22.4014Z" fill="#3A357A"/>
<path d="M307.743 26.8443C307.743 26.8443 307.601 26.8443 307.316 26.8443C307.032 26.811 306.692 26.7111 306.299 26.5447C305.927 26.3451 305.587 25.9956 305.281 25.4964C304.975 24.9972 304.811 24.2484 304.789 23.25C304.767 22.2516 304.865 21.5194 305.084 21.0535C305.303 20.5543 305.577 20.2215 305.905 20.0551C306.233 19.8554 306.55 19.7556 306.857 19.7556C307.163 19.7223 307.382 19.689 307.513 19.6557C307.644 19.6224 307.863 19.6557 308.169 19.7556C308.476 19.8221 308.793 20.0052 309.121 20.3047C309.45 20.5709 309.723 20.9869 309.942 21.5527C310.161 22.0852 310.248 22.8007 310.204 23.6993C310.161 24.5646 310.008 25.2302 309.745 25.6961C309.504 26.1287 309.22 26.4283 308.892 26.5947C308.585 26.7278 308.312 26.811 308.071 26.8443C307.852 26.8443 307.743 26.8443 307.743 26.8443ZM306.594 44.7657L305.806 33.3838C305.806 33.3838 305.752 33.2174 305.642 32.8846C305.555 32.5186 305.489 32.2689 305.445 32.1358C305.423 32.036 305.38 31.8363 305.314 31.5368C305.27 31.204 305.325 30.8545 305.478 30.4885C305.653 30.1224 306.025 29.8561 306.594 29.6897C307.185 29.5233 307.798 29.4734 308.432 29.54C309.067 29.6065 309.625 29.9061 310.106 30.4385C310.609 30.9377 310.916 31.8197 311.025 33.0843C311.113 34.0162 311.2 35.1311 311.288 36.429C311.375 37.6936 311.452 38.9416 311.517 40.173C311.605 41.3711 311.67 42.3861 311.714 43.2182C311.78 44.0169 311.813 44.4162 311.813 44.4162C311.813 44.4162 311.824 44.5993 311.846 44.9654C311.867 45.2982 311.835 45.6975 311.747 46.1635C311.66 46.5961 311.441 46.9955 311.091 47.3615C310.762 47.6943 310.226 47.8608 309.482 47.8608C308.738 47.8608 308.169 47.711 307.776 47.4115C307.382 47.0787 307.097 46.7126 306.922 46.3132C306.769 45.9139 306.671 45.5644 306.627 45.2649C306.605 44.9321 306.594 44.7657 306.594 44.7657Z" fill="#3A357A"/>
<path d="M326.798 32.7848C326.733 34.4488 326.427 35.7967 325.879 36.8283C325.332 37.8268 324.665 38.5922 323.877 39.1247C323.111 39.6239 322.346 39.9733 321.58 40.173C320.814 40.3394 320.168 40.4226 319.643 40.4226C319.14 40.4226 318.888 40.4226 318.888 40.4226C319.02 41.5874 319.206 42.4194 319.446 42.9186C319.687 43.4178 319.95 43.7007 320.234 43.7673C320.54 43.8338 320.825 43.8006 321.087 43.6674C321.35 43.501 321.558 43.318 321.711 43.1183C321.886 42.9186 321.974 42.8188 321.974 42.8188C321.974 42.8188 322.094 42.669 322.335 42.3695C322.575 42.07 322.947 41.7871 323.451 41.5209C323.976 41.2213 324.632 41.0716 325.42 41.0716C326.317 41.0716 326.919 41.2546 327.225 41.6207C327.553 41.9535 327.707 42.3529 327.685 42.8188C327.685 43.2514 327.619 43.6508 327.488 44.0169C327.378 44.3497 327.324 44.5161 327.324 44.5161C327.324 44.5161 327.225 44.6825 327.028 45.0153C326.853 45.3148 326.525 45.6809 326.044 46.1135C325.562 46.5462 324.895 46.9455 324.041 47.3116C323.188 47.6444 322.094 47.8275 320.759 47.8608C319.468 47.894 318.385 47.6278 317.51 47.062C316.635 46.4963 315.913 45.7641 315.344 44.8655C314.775 43.9337 314.337 42.9686 314.031 41.9701C313.746 40.9385 313.538 39.99 313.407 39.1247C313.298 38.2261 313.243 37.5272 313.243 37.028C313.243 36.5288 313.265 35.8799 313.309 35.0811C313.374 34.2824 313.517 33.4504 313.735 32.5851C313.976 31.6865 314.337 30.8379 314.818 30.0392C315.3 29.2404 315.956 28.5915 316.788 28.0923C317.641 27.5931 318.724 27.3268 320.037 27.2935C321.678 27.2603 322.958 27.4766 323.877 27.9425C324.796 28.4084 325.464 28.9742 325.879 29.6398C326.295 30.3054 326.547 30.9377 326.634 31.5368C326.744 32.1358 326.798 32.5518 326.798 32.7848ZM318.429 36.9781C319.764 36.8117 320.759 36.3791 321.416 35.6802C322.072 34.9813 322.455 34.1992 322.564 33.3339C322.674 32.4686 322.564 31.7365 322.236 31.1374C321.93 30.5051 321.459 30.2222 320.825 30.2888C320.19 30.3221 319.709 30.6881 319.381 31.387C319.053 32.0526 318.823 32.8347 318.691 33.7333C318.56 34.5986 318.484 35.364 318.462 36.0296C318.44 36.6619 318.429 36.9781 318.429 36.9781Z" fill="#3A357A"/>
<path d="M331.638 28.1422C332.382 28.0424 332.962 28.0923 333.377 28.292C333.815 28.4584 334.132 28.6913 334.329 28.9908C334.548 29.2904 334.679 29.5732 334.723 29.8395C334.789 30.0725 334.822 30.1889 334.822 30.1889L336.496 39.4741L337.316 35.8299C337.316 35.8299 337.382 35.6303 337.513 35.2309C337.666 34.8315 337.94 34.4322 338.334 34.0328C338.727 33.6334 339.296 33.4504 340.04 33.4837C340.806 33.4837 341.364 33.6667 341.714 34.0328C342.086 34.3989 342.327 34.765 342.436 35.1311C342.568 35.4971 342.633 35.6802 342.633 35.6802L343.487 39.3743C343.487 39.3743 343.541 39.0748 343.651 38.4757C343.782 37.8434 343.946 37.0613 344.143 36.1295C344.34 35.1643 344.537 34.1992 344.734 33.2341C344.931 32.2689 345.095 31.4203 345.226 30.6881C345.379 29.9227 345.478 29.4401 345.522 29.2404C345.587 28.9076 345.708 28.5748 345.883 28.242C346.058 27.9092 346.364 27.643 346.802 27.4433C347.261 27.2103 347.929 27.1438 348.804 27.2436C349.46 27.3102 349.942 27.4766 350.248 27.7428C350.554 28.0091 350.751 28.3086 350.839 28.6414C350.926 28.9742 350.959 29.2571 350.937 29.49C350.915 29.723 350.904 29.8395 350.904 29.8395C350.904 29.8395 350.817 30.1889 350.642 30.8878C350.489 31.5867 350.281 32.4853 350.018 33.5835C349.756 34.6818 349.471 35.8632 349.165 37.1279C348.88 38.3925 348.596 39.6072 348.311 40.7721C348.049 41.9369 347.819 42.9353 347.622 43.7673C347.425 44.566 347.305 45.0486 347.261 45.215C347.174 45.5478 347.031 45.9305 346.834 46.3631C346.659 46.7625 346.386 47.1119 346.014 47.4115C345.664 47.711 345.15 47.8608 344.471 47.8608C343.815 47.8608 343.279 47.7443 342.863 47.5113C342.469 47.2783 342.174 47.0454 341.977 46.8124C341.802 46.5795 341.714 46.463 341.714 46.463L339.876 42.2697L338.334 45.9638C338.334 45.9638 338.268 46.1302 338.137 46.463C338.005 46.7625 337.732 47.0787 337.316 47.4115C336.9 47.711 336.255 47.8608 335.38 47.8608C334.723 47.8608 334.209 47.711 333.837 47.4115C333.465 47.1119 333.181 46.7791 332.984 46.4131C332.809 46.047 332.688 45.7142 332.623 45.4147C332.579 45.1151 332.557 44.9654 332.557 44.9654C332.557 44.9654 332.48 44.5993 332.327 43.8671C332.174 43.135 331.966 42.2031 331.704 41.0716C331.463 39.94 331.2 38.7586 330.916 37.5272C330.653 36.2626 330.391 35.0811 330.128 33.9829C329.887 32.8846 329.691 32.0193 329.537 31.387C329.34 30.6216 329.308 30.0225 329.439 29.5899C329.592 29.1572 329.811 28.8411 330.095 28.6414C330.38 28.4417 330.675 28.3252 330.981 28.292C331.288 28.2254 331.507 28.1755 331.638 28.1422Z" fill="#3A357A"/>
<path d="M365.646 32.7848C365.581 34.4488 365.274 35.7967 364.727 36.8283C364.18 37.8268 363.513 38.5922 362.725 39.1247C361.959 39.6239 361.193 39.9733 360.428 40.173C359.662 40.3394 359.016 40.4226 358.491 40.4226C357.988 40.4226 357.736 40.4226 357.736 40.4226C357.868 41.5874 358.054 42.4194 358.294 42.9186C358.535 43.4178 358.797 43.7007 359.082 43.7673C359.388 43.8338 359.673 43.8006 359.935 43.6674C360.198 43.501 360.406 43.318 360.559 43.1183C360.734 42.9186 360.821 42.8188 360.821 42.8188C360.821 42.8188 360.942 42.669 361.183 42.3695C361.423 42.07 361.795 41.7871 362.298 41.5209C362.824 41.2213 363.48 41.0716 364.268 41.0716C365.165 41.0716 365.767 41.2546 366.073 41.6207C366.401 41.9535 366.554 42.3529 366.533 42.8188C366.533 43.2514 366.467 43.6508 366.336 44.0169C366.226 44.3497 366.171 44.5161 366.171 44.5161C366.171 44.5161 366.073 44.6825 365.876 45.0153C365.701 45.3148 365.373 45.6809 364.891 46.1135C364.41 46.5462 363.743 46.9455 362.889 47.3116C362.036 47.6444 360.942 47.8275 359.607 47.8608C358.316 47.894 357.233 47.6278 356.358 47.062C355.482 46.4963 354.76 45.7641 354.191 44.8655C353.623 43.9337 353.185 42.9686 352.879 41.9701C352.594 40.9385 352.386 39.99 352.255 39.1247C352.146 38.2261 352.091 37.5272 352.091 37.028C352.091 36.5288 352.113 35.8799 352.156 35.0811C352.222 34.2824 352.364 33.4504 352.583 32.5851C352.824 31.6865 353.185 30.8379 353.666 30.0392C354.148 29.2404 354.804 28.5915 355.636 28.0923C356.489 27.5931 357.572 27.3268 358.885 27.2935C360.526 27.2603 361.806 27.4766 362.725 27.9425C363.644 28.4084 364.312 28.9742 364.727 29.6398C365.143 30.3054 365.395 30.9377 365.482 31.5368C365.592 32.1358 365.646 32.5518 365.646 32.7848ZM357.277 36.9781C358.611 36.8117 359.607 36.3791 360.264 35.6802C360.92 34.9813 361.303 34.1992 361.412 33.3339C361.522 32.4686 361.412 31.7365 361.084 31.1374C360.778 30.5051 360.307 30.2222 359.673 30.2888C359.038 30.3221 358.557 30.6881 358.229 31.387C357.9 32.0526 357.671 32.8347 357.539 33.7333C357.408 34.5986 357.331 35.364 357.31 36.0296C357.288 36.6619 357.277 36.9781 357.277 36.9781Z" fill="#3A357A"/>
<path d="M369.632 44.4662C369.632 44.1001 369.6 43.4678 369.534 42.5692C369.468 41.6706 369.381 40.6556 369.271 39.524C369.184 38.3592 369.085 37.2111 368.976 36.0795C368.867 34.9147 368.746 33.883 368.615 32.9845C368.505 32.0526 368.407 31.387 368.319 30.9877C368.101 29.9893 368.221 29.2904 368.681 28.891C369.162 28.4584 369.829 28.1755 370.683 28.0424C371.536 27.9092 372.149 28.0091 372.521 28.3419C372.915 28.6414 373.111 28.7912 373.111 28.7912C373.44 28.292 373.976 27.9425 374.72 27.7428C375.486 27.5432 376.284 27.46 377.116 27.4932C378.188 27.5265 378.965 27.7761 379.446 28.242C379.928 28.708 380.168 29.2072 380.168 29.7396C380.168 30.139 380.135 30.4385 380.07 30.6382C380.004 30.8379 379.742 31.0376 379.282 31.2373C378.844 31.4037 378.046 31.7032 376.886 32.1358C376.208 32.3688 375.704 32.9346 375.376 33.8331C375.048 34.6984 374.84 35.7135 374.753 36.8783C374.687 38.0098 374.687 39.1413 374.753 40.2729C374.818 41.3711 374.895 42.3029 374.982 43.0684C375.07 43.8006 375.114 44.1999 375.114 44.2665C375.114 44.333 375.125 44.566 375.146 44.9654C375.19 45.3315 375.157 45.7475 375.048 46.2134C374.96 46.646 374.731 47.0287 374.359 47.3615C373.987 47.6943 373.396 47.8608 372.586 47.8608C371.777 47.8608 371.164 47.6943 370.748 47.3615C370.333 46.9955 370.048 46.5961 369.895 46.1635C369.742 45.7308 369.654 45.3481 369.632 45.0153C369.632 44.6492 369.632 44.4662 369.632 44.4662Z" fill="#3A357A"/>
</g>
<defs>
<clipPath id="clip0_3_591">
<rect width="380" height="64" fill="white"/>
</clipPath>
</defs>
</svg>
